<?xml version="1.0" encoding="UTF-8" standalone="no"?>
<!-- Created with Inkscape (http://www.inkscape.org/) -->

<svg
   width="500"
   height="500"
   viewBox="0 0 132.29166 132.29167"
   version="1.1"
   id="svg5"
   inkscape:version="1.2.2 (732a01da63, 2022-12-09)"
   sodipodi:docname="logo.svg"
   xmlns:inkscape="http://www.inkscape.org/namespaces/inkscape"
   xmlns:sodipodi="http://sodipodi.sourceforge.net/DTD/sodipodi-0.dtd"
   xmlns:xlink="http://www.w3.org/1999/xlink"
   xmlns="http://www.w3.org/2000/svg"
   xmlns:svg="http://www.w3.org/2000/svg">
  <sodipodi:namedview
     id="namedview7"
     pagecolor="#ffffff"
     bordercolor="#666666"
     borderopacity="1.0"
     inkscape:showpageshadow="2"
     inkscape:pageopacity="0.0"
     inkscape:pagecheckerboard="0"
     inkscape:deskcolor="#d1d1d1"
     inkscape:document-units="mm"
     showgrid="false"
     inkscape:zoom="1.664"
     inkscape:cx="244.59135"
     inkscape:cy="250"
     inkscape:window-width="1920"
     inkscape:window-height="1009"
     inkscape:window-x="1912"
     inkscape:window-y="-8"
     inkscape:window-maximized="1"
     inkscape:current-layer="layer1"
     showguides="true" />
  <defs
     id="defs2">
    <linearGradient
       inkscape:collect="always"
       id="linearGradient12709">
      <stop
         style="stop-color:#74366f;stop-opacity:1;"
         offset="0"
         id="stop12705" />
      <stop
         style="stop-color:#74366f;stop-opacity:0;"
         offset="1"
         id="stop12707" />
    </linearGradient>
    <linearGradient
       id="linearGradient12687"
       inkscape:swatch="solid">
      <stop
         style="stop-color:#74366f;stop-opacity:1;"
         offset="0"
         id="stop12685" />
    </linearGradient>
    <radialGradient
       inkscape:collect="always"
       xlink:href="#linearGradient12709"
       id="radialGradient12711"
       cx="66.145836"
       cy="66.145836"
       fx="66.145836"
       fy="66.145836"
       r="63.500001"
       gradientUnits="userSpaceOnUse"
       gradientTransform="matrix(-4.4036459,-1.3972356,0.30243222,-0.9531709,337.42404,221.61544)" />
  </defs>
  <g
     inkscape:label="Capa 1"
     inkscape:groupmode="layer"
     id="layer1">
    <g
       id="g10394"
       transform="matrix(0.71052631,0,0,0.71052631,21.027414,21.3412)">
      <g
         id="g8930"
         transform="matrix(0.94999998,0,0,0.94999998,0.6614585,0.20674765)">
        <rect
           style="fill:#6610fc;fill-opacity:1;stroke:none;stroke-width:1.08065;stroke-linecap:round;stroke-linejoin:round;stroke-dasharray:none;stroke-opacity:1"
           id="rect290"
           width="105.81658"
           height="39.510464"
           x="13.237542"
           y="4.1349511"
           ry="3.0623088"
           rx="3.7101076" />
        <path
           style="fill:#74366f;fill-opacity:1;stroke:none;stroke-width:0.235765;stroke-linecap:round;stroke-linejoin:round;stroke-dasharray:none;stroke-opacity:1"
           d="M 15.77813,79.087992 C 15.333284,78.894394 14.724217,78.507281 14.42465,78.227574 13.190806,77.075565 13.229299,77.626124 13.229299,61.13055 V 45.792667 l 0.636795,0.609944 c 1.492139,1.429222 -2.432638,1.329686 52.209695,1.324113 48.715621,-0.0049 49.873441,-0.01524 50.833761,-0.451159 0.54048,-0.24534 1.246,-0.709379 1.56782,-1.031194 l 0.58513,-0.585128 -0.0627,15.468094 -0.0627,15.468105 -0.57492,0.838896 c -0.31622,0.461401 -0.99353,1.078916 -1.50515,1.372258 l -0.93023,0.533361 -49.669952,0.05005 c -43.999434,0.04428 -49.762296,0.0103 -50.47877,-0.301909 z"
           id="path6646" />
        <path
           style="fill:#6610fc;fill-opacity:1;stroke:none;stroke-width:0.235765;stroke-linecap:round;stroke-linejoin:round;stroke-dasharray:none;stroke-opacity:1"
           d="m 15.778128,114.46076 c -0.444846,-0.19359 -1.053913,-0.58071 -1.35348,-0.86041 -1.233844,-1.15201 -1.195351,-0.60145 -1.195351,-17.097033 V 81.165435 l 0.636795,0.609944 c 1.492139,1.429223 -2.432638,1.329687 52.209695,1.324114 48.715623,-0.0049 49.873453,-0.01524 50.833763,-0.451159 0.54049,-0.24534 1.24601,-0.709379 1.56781,-1.031194 l 0.58514,-0.585129 -0.0626,15.468096 -0.0626,15.468103 -0.57493,0.8389 c -0.31622,0.4614 -0.99354,1.07892 -1.50515,1.37226 l -0.93022,0.53336 -49.66996,0.05 c -43.999437,0.0443 -49.762296,0.0103 -50.478772,-0.30191 z"
           id="path6646-5" />
        <path
           style="fill:none;stroke:#ffffff;stroke-width:7;stroke-linecap:round;stroke-linejoin:miter;stroke-dasharray:none;stroke-opacity:1"
           d="M 52.916667,23.890183 H 79.375"
           id="path8863-2" />
        <path
           style="fill:none;stroke:#ffffff;stroke-width:7;stroke-linecap:round;stroke-linejoin:miter;stroke-dasharray:none;stroke-opacity:1"
           d="M 52.916667,62.532491 H 79.375"
           id="path8863-2-1" />
        <path
           style="fill:none;stroke:#ffffff;stroke-width:7;stroke-linecap:round;stroke-linejoin:miter;stroke-dasharray:none;stroke-opacity:1"
           d="M 52.916666,97.905241 H 79.374999"
           id="path8863-2-3" />
      </g>
      <g
         id="g10382"
         transform="translate(0.99409518)">
        <path
           style="fill:#6610fc;fill-opacity:1;stroke:none;stroke-width:0.264583px;stroke-linecap:butt;stroke-linejoin:miter;stroke-opacity:1"
           d="m 25.903952,121.51103 10.250533,-12.82331 -9.425377,-2.88925 -4.017623,14.73394 c 0.48607,1.55623 1.579356,1.82046 3.192467,0.97862 z"
           id="path8932"
           sodipodi:nodetypes="ccccc" />
        <path
           style="fill:#6610fc;fill-opacity:1;stroke:none;stroke-width:0.264583px;stroke-linecap:butt;stroke-linejoin:miter;stroke-opacity:1"
           d="m 99.107851,121.51102 -10.250533,-12.82329 9.425377,-2.88925 4.017625,14.73392 c -0.48607,1.55623 -1.57936,1.82046 -3.192469,0.97862 z"
           id="path8932-7"
           sodipodi:nodetypes="ccccc" />
      </g>
    </g>
    <circle
       style="fill:none;fill-opacity:1;stroke:url(#radialGradient12711);stroke-width:1.75345;stroke-linecap:round;stroke-linejoin:round;stroke-dasharray:none;stroke-opacity:1"
       id="path10448"
       cx="66.145836"
       cy="66.145836"
       r="62.623276"
       inkscape:export-filename="logo.png"
       inkscape:export-xdpi="96"
       inkscape:export-ydpi="96" />
  </g>
</svg>
